<?xml version="1.0" encoding="UTF-8" standalone="no"?>
<svg
   xmlns:sketch="http://www.bohemiancoding.com/sketch/ns"
   xmlns:dc="http://purl.org/dc/elements/1.1/"
   xmlns:cc="http://creativecommons.org/ns#"
   xmlns:rdf="http://www.w3.org/1999/02/22-rdf-syntax-ns#"
   xmlns:svg="http://www.w3.org/2000/svg"
   xmlns="http://www.w3.org/2000/svg"
   xmlns:sodipodi="http://sodipodi.sourceforge.net/DTD/sodipodi-0.dtd"
   xmlns:inkscape="http://www.inkscape.org/namespaces/inkscape"
   width="25px"
   height="25px"
   viewBox="0 0 25 25"
   version="1.1"
   id="svg2"
   inkscape:version="0.91 r13725"
   sodipodi:docname="dots-rouge.svg">
  <metadata
     id="metadata62">
    <rdf:RDF>
      <cc:Work
         rdf:about="">
        <dc:format>image/svg+xml</dc:format>
        <dc:type
           rdf:resource="http://purl.org/dc/dcmitype/StillImage" />
        <dc:title>dots</dc:title>
      </cc:Work>
    </rdf:RDF>
  </metadata>
  <sodipodi:namedview
     pagecolor="#ffffff"
     bordercolor="#666666"
     borderopacity="1"
     objecttolerance="10"
     gridtolerance="10"
     guidetolerance="10"
     inkscape:pageopacity="0"
     inkscape:pageshadow="2"
     inkscape:window-width="1280"
     inkscape:window-height="830"
     id="namedview60"
     showgrid="false"
     inkscape:zoom="9.44"
     inkscape:cx="-2.2775424"
     inkscape:cy="12.5"
     inkscape:window-x="-8"
     inkscape:window-y="-8"
     inkscape:window-maximized="1"
     inkscape:current-layer="dots" />
  <!-- Generator: Sketch 3.2.2 (9983) - http://www.bohemiancoding.com/sketch -->
  <title
     id="title4">dots</title>
  <desc
     id="desc6">Created with Sketch.</desc>
  <defs
     id="defs8" />
  <g
     id="Page-1"
     stroke="none"
     stroke-width="1"
     fill="none"
     fill-rule="evenodd"
     sketch:type="MSPage">
    <g
       style="fill:#d57e00"
       sketch:type="MSLayerGroup"
       id="dots">
      <g
         sketch:type="MSShapeGroup"
         id="dot"
         style="fill:#ff0000">
        <g
           id="g14"
           style="fill:#ff0000" />
      </g>
      <g
         sketch:type="MSShapeGroup"
         transform="translate(0,20)"
         id="g18"
         style="fill:#ff0000">
        <g
           id="g20"
           style="fill:#ff0000" />
      </g>
      <g
         sketch:type="MSShapeGroup"
         transform="translate(0,10)"
         id="g24"
         style="fill:#ff0000">
        <g
           id="g26"
           style="fill:#ff0000" />
      </g>
      <g
         sketch:type="MSShapeGroup"
         transform="translate(10,0)"
         id="g30"
         style="fill:#ff0000">
        <g
           id="g32"
           style="fill:#ff0000" />
      </g>
      <g
         sketch:type="MSShapeGroup"
         transform="translate(10,20)"
         id="g36"
         style="fill:#ff0000">
        <g
           id="g38"
           style="fill:#ff0000" />
      </g>
      <g
         sketch:type="MSShapeGroup"
         transform="translate(20,0)"
         id="g42"
         style="fill:#ff0000">
        <g
           id="g44"
           style="fill:#ff0000" />
      </g>
      <g
         sketch:type="MSShapeGroup"
         transform="translate(20,20)"
         id="g48"
         style="fill:#ff0000">
        <g
           id="g50"
           style="fill:#ff0000" />
      </g>
      <g
         sketch:type="MSShapeGroup"
         transform="translate(20,10)"
         id="g54"
         style="fill:#ff0000">
        <g
           id="g56"
           style="fill:#ff0000">
          <path
             id="circle58"
             style="fill:#ff0000"
             d="M 5,2.5 A 2.5,2.5 0 0 1 2.5,5 2.5,2.5 0 0 1 0,2.5 2.5,2.5 0 0 1 2.5,0 2.5,2.5 0 0 1 5,2.5 Z m 0,10 A 2.5,2.5 0 0 1 2.5,15 2.5,2.5 0 0 1 0,12.5 2.5,2.5 0 0 1 2.5,10 2.5,2.5 0 0 1 5,12.5 Z m 0,-20 A 2.5,2.5 0 0 1 2.5,-5 2.5,2.5 0 0 1 0,-7.5 2.5,2.5 0 0 1 2.5,-10 2.5,2.5 0 0 1 5,-7.5 Z m -10,20 A 2.5,2.5 0 0 1 -7.5,15 2.5,2.5 0 0 1 -10,12.5 2.5,2.5 0 0 1 -7.5,10 2.5,2.5 0 0 1 -5,12.5 Z m 0,-20 A 2.5,2.5 0 0 1 -7.5,-5 2.5,2.5 0 0 1 -10,-7.5 2.5,2.5 0 0 1 -7.5,-10 2.5,2.5 0 0 1 -5,-7.5 Z m -10,10 A 2.5,2.5 0 0 1 -17.5,5 2.5,2.5 0 0 1 -20,2.5 2.5,2.5 0 0 1 -17.5,0 2.5,2.5 0 0 1 -15,2.5 Z m 0,10 a 2.5,2.5 0 0 1 -2.5,2.5 2.5,2.5 0 0 1 -2.5,-2.5 2.5,2.5 0 0 1 2.5,-2.5 2.5,2.5 0 0 1 2.5,2.5 z m 0,-20 a 2.5,2.5 0 0 1 -2.5,2.5 2.5,2.5 0 0 1 -2.5,-2.5 2.5,2.5 0 0 1 2.5,-2.5 2.5,2.5 0 0 1 2.5,2.5 z" />
        </g>
      </g>
    </g>
  </g>
</svg>
